<svg height="21" viewBox="0 0 100 21" width="100" xmlns="http://www.w3.org/2000/svg">
    <g fill="none" fill-rule="evenodd">
        <path
            d="m9.34291555 0-9.34291555 21h5.95451757l1.70820063-4.0153162h10.2288378l1.6496483 4.0153162h6.5018546l-9.5847622-21zm3.51059415 4.97504941 2.9912604 7.34066209h-6.04361891z"
            fill="#1a1a1a" />
        <path
            d="m53.308334 0-4.7325558 13.7501235-4.824203-13.7501235h-5.37154l-4.7020068 13.7501235-4.5823564-13.7501235h-6.3491094l7.540522 21h6.4127532l4.3023235-12.53878458 4.4296112 12.53878458h6.6265965l7.5710711-21z"
            fill="#1a1a1a" />
        <path
            d="m83.2998567 0-9.3429156 21h5.9545176l1.7082006-4.0153162h10.2288378l1.6496483 4.0153162h6.5018546l-9.5847621-21zm3.5105941 4.97504941 2.9912605 7.34066209h-6.043619z"
            fill="#1a1a1a" />
        <g fill="#7300e0">
            <path d="m74.0480791 0-9.3403698 21h5.9519718l9.0323336-21z" />
            <path d="m83.2903698 0-9.3403698 21h5.9519718l9.0323336-21z" />
            <path d="m59.8756145 9.13432559h4.5823564v-4.66897233h-4.5823564z" />
            <path d="m59.8756145 16.5320529h4.5823564v-4.6689724h-4.5823564z" />
        </g>
    </g>
</svg>