<svg height="70" viewBox="0 0 61 70" width="61" xmlns="http://www.w3.org/2000/svg"><g fill="none" fill-rule="evenodd" transform="translate(1 1)"><g fill-rule="nonzero"><path d="m0 37.2954311 34.2989983-37.2954311 8.5066504 6.93994867-3.1605402 16.84125073h10.9256121l8.4292794 6.9399646-34.1325868 37.2785172-8.5940923-6.9123859 3.0815706-16.8687976h-10.68182964z" fill="#fff"/><path d="m34.2983589 0-34.2983589 37.2954311h20.75764l-4.4846388 23.7918642 34.2983589-37.2954151h-20.7574801z" fill="#ffce51"/><path d="m16.2730012 61.0874547 8.5940923 6.9125453 34.1325868-37.2786766-8.4292794-6.9398052z" fill="#89dcff"/><path d="m8.67306186 44.2175412h10.68182964l1.4027485-6.923226h-20.75764z" fill="#ea563d"/><path d="m34.2983589.0008449-4.4843191 23.7910353 9.8312286-.0106808 3.1605401-16.84125073-8.5066503-6.93994867z" fill="#89dcff"/></g><g stroke="#000" stroke-linecap="round" stroke-linejoin="round" stroke-width="1.6"><path d="m0 37.2954311 34.2989983-37.2954311 8.5066504 6.93994867-3.1605402 16.84125073h10.9256121l8.4292794 6.9399646-34.1325868 37.2785172-8.5940923-6.9123859 3.0815706-16.8687976h-10.68182964z"/><path d="m34.2983589 0-34.2983589 37.2954311h20.75764l-4.4846388 23.7918642 34.2983589-37.2954151h-20.7574801z"/><path d="m16.2730012 61.0874547 8.5940923 6.9125453 34.1325868-37.2786766-8.4292794-6.9398052z"/><path d="m8.67306186 44.2175412h10.68182964l1.4027485-6.923226h-20.75764z"/><path d="m34.2983589.0008449-4.4843191 23.7910353 9.8312286-.0106808 3.1605401-16.84125073-8.5066503-6.93994867z"/></g></g></svg>