<svg height="65" viewBox="0 0 52 65" width="52" xmlns="http://www.w3.org/2000/svg"><g fill="none" fill-rule="evenodd" transform="translate(1 1)"><g fill-rule="nonzero"><path d="m45.1252159 22.3743993c-6.1900291-1.659326-12.552573 2.0159031-14.2112458 8.2089678-1.6586727 6.1930648 2.0147549 12.5588891 8.2049442 14.2183753l-4.873823 18.1980973-11.6802281-3.1313086c-16.23561143-4.3524854-25.87063424-21.048952-21.5202823-37.2925255 4.35033592-16.24368568 21.0386185-25.88338548 37.27423-21.53091613l11.680228 3.13122852z" fill="#fff"/><path d="m22.5648632 59.8685311c-16.23561143-4.3524854-25.87061822-21.048952-21.5202823-37.2925255 4.35033592-16.24368568 21.0386185-25.88338548 37.27423-21.53091613l-4.8736628 18.19816143c-6.1901893-1.6594862-12.5527332 2.0157429-14.211406 8.2089678-1.6585126 6.1930648 2.014915 12.5587289 8.2049441 14.2182151z" fill="#89dcff"/><path d="m45.1274585 22.3747198c-6.1900291-1.6594862-12.5527332 2.0157429-14.211406 8.2089679-1.6585126 6.1930647 2.014915 12.5587288 8.2049441 14.218215l-11.6800678-3.1311484c-6.1901893-1.6594862-9.863617-8.0253106-8.2049442-14.2183753s8.0212167-9.8682938 14.2112458-8.2089679z" fill="#ea563d"/><path d="m38.319772 1.04544204-4.8736628 18.19812936 11.6800678 3.1311484 4.873823-18.19804923z" fill="#ffce51"/><path d="m27.440288 41.6705941-4.8736628 18.1980972 11.6800679 3.1313087 4.873823-18.1982576z" fill="#ffce51"/></g><g stroke="#000" stroke-linecap="round" stroke-linejoin="round" stroke-width="1.6"><path d="m45.1252159 22.3743993c-6.1900291-1.659326-12.552573 2.0159031-14.2112458 8.2089678-1.6586727 6.1930648 2.0147549 12.5588891 8.2049442 14.2183753l-4.873823 18.1980973-11.6802281-3.1313086c-16.23561143-4.3524854-25.87063424-21.048952-21.5202823-37.2925255 4.35033592-16.24368568 21.0386185-25.88338548 37.27423-21.53091613l11.680228 3.13122852z"/><path d="m45.125697 22.37488-11.680068-3.131309"/><path d="m39.120516 44.801742-11.680228-3.131148"/><path d="m22.5648632 59.8685311c-16.23561143-4.3524854-25.87061822-21.048952-21.5202823-37.2925255 4.35033592-16.24368568 21.0386185-25.88338548 37.27423-21.53091613l-4.8736628 18.19816143c-6.1901893-1.6594862-12.5527332 2.0157429-14.211406 8.2089678-1.6585126 6.1930648 2.014915 12.5587289 8.2049441 14.2182151z"/><path d="m45.1274585 22.3747198c-6.1900291-1.6594862-12.5527332 2.0157429-14.211406 8.2089679-1.6585126 6.1930647 2.014915 12.5587288 8.2049441 14.218215l-11.6800678-3.1311484c-6.1901893-1.6594862-9.863617-8.0253106-8.2049442-14.2183753s8.0212167-9.8682938 14.2112458-8.2089679z"/><path d="m38.319772 1.04544204-4.8736628 18.19812936 11.6800678 3.1311484 4.873823-18.19804923z"/><path d="m27.440288 41.6705941-4.8736628 18.1980972 11.6800679 3.1313087 4.873823-18.1982576z"/></g></g></svg>