<svg height="61" viewBox="0 0 60 61" width="60" xmlns="http://www.w3.org/2000/svg"><g fill="none" fill-rule="evenodd" transform="translate(1 1)"><g fill-rule="nonzero"><path d="m36.1070578 0-36.1070578 37.9629887 11.868528 12.1191236 46.1309976 8.9166138-10.0239397-46.8795388z" fill="#fff"/><path d="m36.1070578 0 10.0239397 46.8796025-46.1309975-8.9166138z" fill="#ffb9aa"/><path d="m46.131472 46.8796025-10.0240979-46.8796025 11.8685281 12.1191873 10.0240978 46.8795388z" fill="#89dcff"/><path d="m0 37.9642625 46.1309975 8.9166139 11.8685281 12.1191236-46.1309976-8.9166139z" fill="#ea563d"/></g><g stroke="#000" stroke-linecap="round" stroke-linejoin="round" stroke-width="1.6"><path d="m36.1070578 0-36.1070578 37.9629887 11.868528 12.1191236 46.1309976 8.9166138-10.0239397-46.8795388z"/><path d="m36.1070578 0 10.0239397 46.8796025-46.1309975-8.9166138z"/><path d="m46.131472 46.8796025-10.0240979-46.8796025 11.8685281 12.1191873 10.0240978 46.8795388z"/><path d="m0 37.9642625 46.1309975 8.9166139 11.8685281 12.1191236-46.1309976-8.9166139z"/></g></g></svg>