<svg height="56" viewBox="0 0 68 56" width="68" xmlns="http://www.w3.org/2000/svg"><g fill="none" fill-rule="evenodd" transform="translate(1 1)"><g fill-rule="nonzero"><path d="m29.2640728.02524633-26.71117861 18.72767197-2.55289419 29.6136905 63.446421 5.6333912 2.552942-29.6136905-23.1010193-23.1504837z" fill="#fff"/><path d="m42.8967511 1.2358258-13.6342709-1.21057947 23.1029304 23.12783957 13.6342709 1.2109189z" fill="#ffb9ec"/><path d="m2.55445494 18.7277043 26.71121046-18.7277043 23.1010193 23.1504999-2.552942 29.6136905-49.81219788-4.4227956z" fill="#94e986"/><path d="m63.4451469 53.9988686 2.5548531-29.6359952-13.6342709-1.2109189-2.5548531 29.6363185z" fill="#89dcff"/></g><g stroke="#000" stroke-linecap="round" stroke-linejoin="round" stroke-width="1.6"><path d="m29.2640728.02524633-26.71117861 18.72767197-2.55289419 29.6136905 63.446421 5.6333912 2.552942-29.6136905-23.1010193-23.1504837z"/><path d="m42.8967511 1.2358258-13.6342709-1.21057947 23.1029304 23.12783957 13.6342709 1.2109189z"/><path d="m2.55445494 18.7277043 26.71121046-18.7277043 23.1010193 23.1504999-2.552942 29.6136905-49.81219788-4.4227956z"/><path d="m63.4451469 53.9988686 2.5548531-29.6359952-13.6342709-1.2109189-2.5548531 29.6363185z"/></g></g></svg>